<svg width="512" height="363" viewBox="0 0 512 363" fill="none" xmlns="http://www.w3.org/2000/svg">
<g clip-path="url(#clip0_1_71)">
<path d="M28.6639 328.835C27.3358 313.869 26.9226 298.823 26.0613 283.814C25.7802 278.917 25.4254 274.021 24.9836 269.136C24.1111 259.488 18.8456 253.121 10.0973 249.342C-0.343451 244.832 -0.152222 244.802 0.0573285 233.231C0.134299 228.978 1.57869 226.719 5.51338 224.88C10.2859 222.648 14.9427 219.764 18.9125 216.314C25.4151 210.663 25.5596 202.345 25.8183 194.613C27.3515 148.773 28.6603 102.924 29.9227 57.0747C30.3492 41.5852 30.5551 26.0861 30.5721 10.5911C30.5772 5.9613 32.5667 4.15517 36.8365 4.14872C38.8174 4.14569 40.8119 4.09947 42.7764 4.30303C46.525 4.69157 48.4943 6.55193 48.3224 10.6586C48.0927 16.1444 48.2656 21.6471 48.2656 28.2775C54.09 22.9156 58.5912 18.1657 63.6912 14.1822C85.5835 -2.91809 116.094 -4.12955 140.144 9.62264C164.138 23.3429 176.427 43.7202 177.551 70.9061C179.18 110.326 154.143 142.072 118.041 147.747C100.795 150.458 82.4812 147.646 68.1053 138.734C56.995 131.847 53.2955 128.481 48.5156 124.064C47.9599 128.65 48.4884 142.636 48.3448 151.92C48.1281 165.922 47.8012 179.963 47.3025 193.917C46.7132 210.401 40.9309 224.028 26.2926 232.947C25.0436 233.708 24.0549 234.896 22.5346 236.252C25.9387 238.594 29.0217 240.504 31.8725 242.714C42.2343 250.745 46.0532 262.215 47.066 274.507C48.3372 289.936 48.4529 305.457 49.3328 320.922C49.5713 325.114 49.9501 329.641 51.7041 333.329C54.8337 339.909 61.5185 341.338 68.0891 341.489C76.7369 341.688 75.7507 346.885 75.7143 350.93C75.6655 356.372 75.9725 361.064 64.1757 360.685C42.3888 359.983 30.0924 344.934 28.6639 328.835ZM145.391 37.616C143.762 35.9947 142.164 34.3396 140.498 32.7571C118.937 12.2781 83.9843 13.7917 63.5387 33.7714C47.7625 49.1883 43.1965 78.5136 52.215 99.9844C62.8755 125.364 97.1474 141.175 126.057 127.552C159.994 111.56 171.033 67.6241 145.391 37.616Z" fill="white"/>
<path d="M401.311 18.6476C388.289 20.9325 378.188 27.2797 370.125 37.194C366.365 41.8178 362.2 46.1129 357.832 50.9885C355.881 44.1102 353.958 39.5569 351.145 33.9019C357.327 25.5434 370.221 9.71379 384.028 4.9629C401.901 -1.18737 422.361 -1.06353 440.635 8.29868C446.29 11.1962 451.275 15.4291 456.474 19.1799C458.927 20.9495 461.16 23.0243 464.616 25.894C464.938 20.9342 465.243 17.1138 465.424 13.2875C465.825 4.79634 467.972 2.93331 476.556 3.98079C478.819 4.257 481.04 4.88823 483.471 5.39627C483.541 6.92131 483.644 8.25992 483.659 9.59944C484.311 68.0441 484.934 126.489 485.637 184.933C485.701 190.291 486.123 195.656 486.626 200.994C487.607 211.405 493.171 218.492 502.677 222.695C512.447 227.014 512.039 227.068 511.973 237.63C511.936 243.479 509.947 246.33 504.314 247.936C493.384 251.052 488.22 259.529 487.273 270.132C485.869 285.855 485.684 301.684 484.419 317.423C483.762 325.595 482.872 333.987 480.35 341.712C476.757 352.713 468.74 359.803 456.548 360.041C430.34 360.553 403.823 360.169 377.61 360.316C371.975 360.347 371.683 357.731 371.836 351.324C371.95 346.563 371.666 341.81 382.355 341.654C402.752 341.357 423.449 340.835 443.837 341.002C459.324 341.128 463.074 332.063 463.428 321.242C463.934 305.759 464.432 290.269 465.312 274.804C466.183 259.496 472.556 247.128 485.987 238.94C487.026 238.307 488.011 237.581 488.996 236.863C489.232 236.691 489.367 236.38 489.837 235.739C488.423 234.689 487.067 233.545 485.584 232.6C472.573 224.307 466.041 212.293 465.205 197.054C464.264 179.905 463.504 162.746 462.43 145.606C462.255 142.828 462.271 133.873 461.763 125.727C453.922 130.979 445.755 136.107 437.748 139.211C409.202 150.199 379.961 143.176 359.718 125.971C356.048 122.852 352.174 118.982 350.09 115.09C352.327 109.946 354.452 106.496 356.98 100.992C359.23 104.163 363.04 108.838 366.345 112.024C380.731 125.892 407.337 132.537 428.507 126.119C467.024 114.442 476.149 69.8037 456.416 41.5606C443.247 22.7143 424.778 14.7091 401.311 18.6476Z" fill="white"/>
<path d="M318.628 11.1755C343.2 28.1644 354.779 51.0656 352.611 80.7968C350.942 103.667 340.886 121.933 322.206 134.853C279.306 164.526 218.331 144.249 207.618 89.1725C198.977 44.7466 227.733 7.44372 267.19 1.0863C285.241 -1.822 302.597 0.966515 318.628 11.1755ZM223.979 75.814C224.325 79.3152 224.432 82.8595 225.055 86.3107C232.788 129.15 278.584 142.473 310.199 122.959C334.28 108.095 340.53 75.2833 331.076 52.2727C318.504 21.6722 283.185 8.53612 254.423 23.306C233.609 33.994 224.159 51.848 223.979 75.814Z" fill="white"/>
<path d="M271.109 215.737C274.432 231.981 274.294 248.562 266.956 263.919C257.825 283.029 241.615 291.379 220.903 291.64C196.079 291.952 176.337 278.671 170.637 254.902C163.824 226.492 168.352 201.035 191.685 184.949C196.906 181.35 203.552 178.814 209.829 178.001C217.921 176.953 237.042 177.411 248.042 184.153C259.158 190.965 267.112 196.198 271.109 215.737ZM245.53 266.777C247.812 263.352 250.665 260.173 252.272 256.456C257.709 243.878 257.872 230.628 254.347 217.723C250.458 203.488 241.142 194.079 225.877 191.951C210.724 189.839 197.792 196.077 190.38 209.516C183.231 222.479 182.12 236.295 186.354 250.455C194.43 277.457 225.055 286.178 245.53 266.777Z" fill="white"/>
<path d="M154.522 270.845C149.915 284.055 139.499 288.654 127.25 290.608C116.151 292.378 105.236 291.167 94.5776 287.894C88.5144 286.032 84.8444 277.172 87.8459 271.635C88.4019 270.61 91.1935 269.981 92.6097 270.382C98.0386 271.92 103.274 274.13 108.682 275.756C115.458 277.792 122.274 277.66 128.984 275.202C140.483 270.991 142.87 259.105 133.669 250.907C130.848 248.394 127.474 246.457 124.208 244.499C116.345 239.783 108.262 235.421 100.512 230.529C90.4317 224.165 86.3742 214.73 87.9811 202.992C89.6346 190.914 97.2148 183.76 108.158 179.632C120.75 174.882 133.492 176.087 146.141 179.15C151.851 180.532 154.344 190.319 150.281 194.903C149.583 195.691 147.207 195.579 145.869 195.119C136.597 191.931 127.229 190.444 117.44 192.241C108.152 193.945 101.801 203.635 105.639 211.188C107.01 213.888 109.577 216.331 112.174 217.992C120.932 223.592 129.902 228.869 138.878 234.121C151.232 241.348 158.772 250.883 154.522 270.845Z" fill="white"/>
<path d="M332.476 276.637C343.215 278.242 352.92 275.145 362.532 272.123C366.338 270.927 367.498 272.04 368.192 275.384C369.563 281.983 368.124 285.649 362.418 287.49C347.668 292.248 332.643 293.601 317.744 288.522C299.475 282.293 289.638 268.702 286.289 250.126C282.256 227.749 285.836 207.217 302.974 191.002C315.391 179.254 330.9 175.689 347.644 177.187C352.049 177.58 356.431 178.439 360.767 179.353C366.053 180.466 370.424 190.039 367.584 194.536C367.019 195.431 364.679 195.725 363.291 195.494C356.238 194.319 349.28 192.203 342.193 191.655C317.531 189.746 297.948 214.137 300.763 238.14C302.4 252.106 306.72 264.538 319.701 271.933C323.475 274.084 327.944 275.018 332.476 276.637Z" fill="white"/>
<path d="M178.529 9.63563C178.864 13.6578 179.151 17.2773 179.537 22.1429C184.425 17.5315 188.401 13.5954 192.575 9.88183C201.001 2.38486 210.657 -1.36818 222.071 0.863405C223.694 1.18068 225.293 1.7795 226.807 2.46303C229.727 3.78211 230.225 5.68059 228.806 8.74743C225.726 15.3999 220.457 17.7519 213.586 17.3406C202.861 16.6986 195.662 22.184 190.141 30.6353C188.806 32.6787 187.613 34.8164 186.387 36.9294C184.954 39.4 182.486 43.6025 181.031 46.1564C176.971 33.2993 169.236 23.1039 161.72 14.3818C157.581 9.5779 162.121 3.08901 168.525 2.93479C169.894 2.90183 171.271 3.1565 172.64 3.12317C176.862 3.02051 178.773 5.05608 178.529 9.63563Z" fill="white"/>
<path d="M391.897 274.754C393.818 268.258 399.908 265.266 405.415 268.197C406.503 268.776 407.413 271.437 407.039 272.747C402.383 289.01 397.536 305.22 392.588 321.398C391.245 325.789 387.333 324.445 384.425 324.021C380.489 323.447 382.286 320.043 382.675 318.105C385.555 303.742 388.717 289.435 391.897 274.754Z" fill="white"/>
<path d="M352.995 226.411C357.242 226.808 355.839 229.72 355.6 231.676C355.215 234.814 354.287 237.886 353.39 241.865C358.418 240.688 360.284 237.637 361.064 233.85C362.092 228.863 359.78 223.726 355.432 221.922C349.47 219.449 343.402 219.475 338.103 223.607C332.933 227.638 331.404 233.197 332.575 239.577C333.308 243.574 339.396 250.304 347.179 249.781C348.786 249.673 350.39 249.527 353.129 249.307C351.765 250.741 351.322 251.613 350.656 251.846C340.336 255.456 329.255 247.765 328.915 236.819C328.464 222.302 344.025 212.386 356.929 219.038C361.84 221.57 364.372 225.829 364.391 231.312C364.41 236.67 362.439 241.248 357.52 243.902C354.441 245.564 351.123 246.604 348.654 242.337C345.338 245.189 341.965 246.737 338.42 243.292C335.435 240.393 335.436 234.978 338.283 230.038C340.568 226.073 344.33 224.333 348.275 225.393C349.708 225.778 351.157 226.106 352.995 226.411ZM346.255 228.276C342.045 228.724 338.612 235.168 339.82 239.225C340.38 241.105 343.19 242.32 345.092 241.84C348.43 240.999 351.296 236.85 351.063 233.416C350.904 231.076 350.191 227.857 346.255 228.276Z" fill="white"/>
<path d="M399.185 196.099C391.612 195.531 389.123 190.162 389.7 182.481C390.142 176.605 393.658 172.507 398.678 172.016C404.948 171.403 410.397 175.91 411.027 182.23C411.831 190.295 407.637 196.732 399.185 196.099Z" fill="white"/>
<path d="M390.558 221.597C390.562 220.271 392.237 218.704 393.649 218.702C394.993 218.7 396.588 220.221 396.601 221.45C396.668 227.727 396.63 233.844 396.57 240.124C396.528 244.465 389.735 249.46 384.716 249.408C379.743 249.356 373.252 244.754 373.164 239.968C373.035 232.96 373.211 228.192 373.032 221.164C373.008 220.256 374.372 218.452 375.621 218.456C376.999 218.459 378.422 220.045 378.462 221.461C378.606 226.571 378.626 232.808 378.725 238.876C378.772 241.701 381.786 244.238 384.407 244.317C387.077 244.397 390.49 241.707 390.518 239.133C390.583 233.259 390.545 226.835 390.558 221.597Z" fill="white"/>
<path d="M178.308 113.834C178.709 125.098 180.413 140.912 178.071 143.656C175.786 146.333 166.638 144.841 161.9 144.571C158.837 144.397 159.694 141.875 158.956 137.996C167.103 130.918 172.912 124.584 178.308 113.834Z" fill="white"/>
<path d="M442.831 222.472C439.818 222.384 437.615 223.264 436.978 225.341C436.466 227.014 438.007 228.839 439.589 229.895C442.22 231.65 446.08 233.118 448.363 235.117C452.075 238.367 452.189 241.866 449.087 245.533C445.896 249.305 436.602 250.848 432.487 248.171C431.744 247.688 429.712 246.151 430.277 244.989C431.429 242.617 435.909 244.541 438.174 244.522C440.142 244.506 443.038 243.38 443.433 241.376C443.808 239.471 441.522 237.771 439.945 236.713C438.115 235.486 436.461 234.832 434.819 233.731C431.653 231.608 430.207 228.793 430.853 224.767C431.527 220.555 434.136 218.818 437.865 218.049C441.935 217.209 450.447 216.489 450.456 220.784C450.461 223.387 445.843 222.56 442.831 222.472Z" fill="white"/>
<path d="M411.113 230.002C411.079 222.082 409.584 223.023 405.221 222.146C404.228 221.946 402.085 221.72 402.198 220.593C402.609 216.516 409.935 217.275 414.033 217.268C418.109 217.262 425.046 216.536 425.817 220.539C426 221.491 424.448 222.083 423.504 222.303C416.058 224.036 417.775 222.052 417.35 230.389C417.148 234.36 416.931 240.688 416.397 244.622C416.211 245.99 415.641 248.588 414.112 248.599C412.545 248.61 412.211 246.063 411.712 244.558C411.495 239.859 411.131 234.359 411.113 230.002Z" fill="white"/>
</g>
<defs>
<clipPath id="clip0_1_71">
<rect width="512" height="362.553" fill="white"/>
</clipPath>
</defs>
</svg>
